<?xml version="1.0" standalone="no"?>
<!DOCTYPE svg PUBLIC "-//W3C//DTD SVG 20010904//EN"
 "http://www.w3.org/TR/2001/REC-SVG-20010904/DTD/svg10.dtd">
<svg version="1.0" xmlns="http://www.w3.org/2000/svg"
 width="249.000000pt" height="65.000000pt" viewBox="0 0 249.000000 65.000000"
 preserveAspectRatio="xMidYMid meet">
<metadata>
Created by potrace 1.10, written by Peter Selinger 2001-2011
</metadata>
<g transform="translate(0.000000,65.000000) scale(0.100000,-0.100000)"
fill="#000000" stroke="none">
<path d="M540 427 c0 -7 11 -13 27 -12 l27 0 -3 -77 c-2 -67 0 -78 14 -78 14
0 16 11 14 78 l-2 77 27 0 c15 -1 26 5 26 12 0 9 -19 13 -65 13 -46 0 -65 -4
-65 -13z"/>
<path d="M702 350 c-1 -74 1 -90 13 -90 11 0 15 13 15 54 0 41 4 55 16 60 28
11 44 -13 44 -65 0 -27 5 -49 10 -49 17 0 12 107 -6 124 -18 19 -20 19 -45 6
-17 -10 -19 -7 -19 20 0 18 -5 30 -13 30 -9 0 -13 -25 -15 -90z"/>
<path d="M1150 350 l0 -90 60 0 c33 0 60 4 60 10 0 6 -22 10 -50 10 -49 0 -50
1 -50 30 0 29 2 30 45 30 25 0 45 5 45 10 0 6 -21 10 -46 10 -44 0 -45 1 -42
28 3 25 7 27 46 27 27 0 42 4 42 13 0 8 -18 12 -55 12 l-55 0 0 -90z"/>
<path d="M1490 411 c0 -16 -6 -21 -25 -21 -14 0 -25 -4 -25 -10 0 -5 11 -10
24 -10 23 0 25 -4 28 -52 3 -52 4 -53 36 -56 18 -2 32 1 32 7 0 6 -11 11 -25
11 -23 0 -25 4 -25 45 0 41 2 45 25 45 14 0 25 5 25 10 0 6 -11 10 -25 10 -15
0 -25 6 -25 14 0 8 -4 18 -10 21 -5 3 -10 -3 -10 -14z"/>
<path d="M872 384 c-27 -18 -31 -84 -6 -108 20 -20 68 -21 84 -1 16 20 5 32
-14 16 -20 -17 -60 -10 -64 12 -3 14 4 17 48 17 49 0 51 1 45 23 -7 24 -41 57
-59 57 -6 0 -22 -7 -34 -16z m68 -34 c0 -6 -16 -10 -35 -10 -38 0 -46 13 -18
29 19 10 53 -2 53 -19z"/>
<path d="M1323 390 c-13 -5 -23 -16 -23 -25 0 -19 9 -19 32 1 14 14 20 14 33
4 23 -19 18 -27 -19 -34 -43 -8 -64 -31 -49 -54 7 -12 26 -17 67 -18 31 -1 56
2 56 7 0 5 -4 9 -10 9 -5 0 -10 19 -10 43 0 23 -4 47 -8 53 -11 17 -44 24 -69
14z m55 -87 c-4 -23 -58 -31 -58 -9 0 15 14 24 43 25 12 1 17 -5 15 -16z"/>
<path d="M1622 384 c-27 -18 -31 -84 -6 -108 20 -20 68 -21 84 -1 16 20 5 32
-14 16 -20 -17 -60 -10 -64 12 -3 14 4 17 48 17 49 0 51 1 45 23 -7 24 -41 57
-59 57 -6 0 -22 -7 -34 -16z m68 -34 c0 -6 -16 -10 -35 -10 -38 0 -46 13 -18
29 19 10 53 -2 53 -19z"/>
<path d="M1750 379 c0 -5 9 -9 20 -9 17 0 20 -7 20 -45 0 -38 -3 -45 -20 -45
-11 0 -20 -4 -20 -10 0 -5 23 -10 50 -10 28 0 50 5 50 10 0 6 -9 10 -21 10
-18 0 -20 5 -17 43 3 38 6 42 31 45 50 6 28 20 -33 21 -33 0 -60 -4 -60 -10z"/>
<path d="M1920 319 c29 -69 29 -71 10 -76 -25 -7 -26 -23 -1 -23 25 0 33 12
64 98 20 56 23 72 12 72 -8 0 -19 -19 -26 -42 -18 -64 -25 -65 -44 -9 -9 28
-23 51 -30 51 -10 0 -6 -19 15 -71z"/>
</g>
</svg>
